# xmcd
#
# Track frame offsets:
#	150
#	17844
#	38077
#	56391
#	74873
#	93341
#	106763
#	121618
#	136740
#	154520
#	170937
#	192532
#	209875
#
# Disc length: 3121 seconds
#
# Revision: 0
# Processed by: cddbd v1.5.2PL0 Copyright (c) Steve Scherf et al.
# Submitted via: EasyCDDAExtractor 16.0.6.1
#
DISCID=b80c2f0d
DTITLE=Καρράς Βασίλης - Σαράντα εννέα μεγ. επιτυχίες-Β. Καρράς 4
DYEAR=2010
DGENRE=Λαϊκή νεώτερη
TTITLE0=Καρράς Βασίλης - Σιγά το πράγμα [Χρ. Δάντης-Ν. Σαρρής]
TTITLE1=Καρράς Βασίλης - Αύγουστος [Γιώργος Μουκίδης]
TTITLE2=Καρράς Βασίλης - Απόψε σιωπηλοί [Βάσω Αλογιάννη]
TTITLE3=Καρράς Βασίλης-Αντιθέσεις - Εκεί ψηλά [Κ. Κυριακίδης-Β.Κ κ Ζωή Λύρα]
TTITLE4=Καρράς Βασίλης-Αλχημιστές - Λόγια φιλικά [Β. Γαβριηλίδης-Αλχημιστές]
TTITLE5=Καρράς Βασίλης - Μάννα μου, δεν μού το είπες [Α. Χρυσοβέργης-Β. Καρράς
TTITLE5=]
TTITLE6=Καρράς Βασίλης - Αχ μοναξιά μου [Β. Γαβριηλίδης-Β. Καρράς]
TTITLE7=Καρράς Βασίλης - Της ζωής αντιρρησίας [Σ. Βογιατζής-Π. Καλτσίδης]
TTITLE8=Καρράς Βασίλης - Εγώ τα λάθη μου [Β. Καρράς/Η. Καμπακάκης-Β.Καρράς]
TTITLE9=Καρράς Βασίλης - Για λέγε [Α. Χρυσοβέργης-Σ. Γιατράς]
TTITLE10=Καρράς Βασίλης-Μερκούρη Ειρήνη - Εμείς οι δυό [Β. Καρράς]
TTITLE11=Καρράς Βασίλης - Λυπάμαι [Σ. Γεωργίου-Ν. Μουτσανά]
TTITLE12=Καρράς Βασίλης-Νικολαΐδης Στ.-ΚαμπακάκηςΗ.-ΚεσογλίδουΕ. - Ποντιακός ύ
TTITLE12=μνος [Β. Καρράς]
EXTD=
EXTT0=
EXTT1=
EXTT2=
EXTT3=
EXTT4=
EXTT5=
EXTT6=
EXTT7=
EXTT8=
EXTT9=
EXTT10=
EXTT11=
EXTT12=
PLAYORDER=
